<?xml version="1.0" encoding="iso-8859-1"?>
<!-- Generator: Adobe Illustrator 19.0.0, SVG Export Plug-In . SVG Version: 6.00 Build 0)  -->
<svg version="1.1" id="Layer_1" xmlns="http://www.w3.org/2000/svg" xmlns:xlink="http://www.w3.org/1999/xlink" x="0px" y="0px"
	 viewBox="0 0 489 489" style="enable-background:new 0 0 489 489;" xml:space="preserve">
<g>
	<g>
		<path d="M367,159c-10.3,0-20.5,1.3-30.2,3.8c-8.4-20.8-22.7-39.4-40.9-52.9c-21.2-15.7-46.3-24-72.5-24
			c-44.5,0-85.6,25.2-107.1,64.9c-8.1-2.4-16.7-3.7-24.7-3.7C41.1,147.1,0,188.3,0,238.9s41.1,91.8,91.6,91.8h54
			c8.9,41.3,45.6,72.4,89.5,72.4H367c67.3,0,122-54.9,122-122.3C489,213.5,434.3,159,367,159z M143.5,310.2h-52
			c-39.4,0.2-71.5-32-71.5-71.6v0c0-39.6,32.1-71.8,71.6-71.8c8.3,0,17.7,1.9,25.9,5.3c5,2.1,10.7-0.2,13-5.1
			c16.8-37.3,53.4-61.4,93-61.4c41.1,0,78.8,25.7,94.4,63.4c-24.7,10.8-45.4,29.6-58.3,54c-7.8-2.1-15.9-3.1-24.5-3.1
			c-24.4,0-47.4,9.4-64.7,26.5C153.2,263.4,143.7,286,143.5,310.2z M367,382.8L367,382.8l-131.9,0c-39.5,0-71.6-32.2-71.6-71.8
			c0-39.1,32.1-71,71.6-71c9.4,0,18,1.5,26.1,4.7c5,1.9,10.6-0.4,12.8-5.4c15.9-36.7,52.4-60.4,93-60.4c56.3,0,102,45.6,102,101.6
			C469,336.9,423.2,382.8,367,382.8z"/>
	</g>
</g>
<g>
</g>
<g>
</g>
<g>
</g>
<g>
</g>
<g>
</g>
<g>
</g>
<g>
</g>
<g>
</g>
<g>
</g>
<g>
</g>
<g>
</g>
<g>
</g>
<g>
</g>
<g>
</g>
<g>
</g>
</svg>
