<svg width="617px" height="330px" viewBox="-40 -30 617 330" version="1.1" xmlns="http://www.w3.org/2000/svg" xmlns:xlink="http://www.w3.org/1999/xlink">
    <desc>Created with Sketch.</desc>
    <defs>
        <filter x="-50%" y="-50%" width="200%" height="200%" filterUnits="objectBoundingBox" id="filter-1">
            <feOffset dx="0" dy="2" in="SourceAlpha" result="shadowOffsetOuter1"></feOffset>
            <feGaussianBlur stdDeviation="5" in="shadowOffsetOuter1" result="shadowBlurOuter1"></feGaussianBlur>
            <feColorMatrix values="0 0 0 0 0   0 0 0 0 0   0 0 0 0 0  0 0 0 0.5 0" type="matrix" in="shadowBlurOuter1" result="shadowMatrixOuter1"></feColorMatrix>
            <feMerge>
                <feMergeNode in="shadowMatrixOuter1"></feMergeNode>
                <feMergeNode in="SourceGraphic"></feMergeNode>
            </feMerge>
        </filter>
        <filter x="-50%" y="-50%" width="200%" height="200%" filterUnits="objectBoundingBox" id="filter-2">
            <feGaussianBlur stdDeviation="10" in="SourceGraphic"></feGaussianBlur>
        </filter>
        <radialGradient cx="48.193814%" cy="116.835938%" fx="48.193814%" fy="116.835938%" r="169.204535%" id="radialGradient-3">
            <stop stop-color="#FFFFFF" offset="0%"></stop>
            <stop stop-color="#FFFFFF" offset="29.3019894%"></stop>
            <stop stop-color="#AFAFAF" offset="100%"></stop>
        </radialGradient>
    </defs>
    <g id="Group" filter="url(#filter-1)" stroke="none" stroke-width="1" fill="none" fill-rule="evenodd" transform="translate(0.000000, -6.000000)">
        <path d="M509.89191,262.990792 C524.943134,262.679607 537,254.5201 537,244.5 C537,236.629081 529.560544,229.906206 519.074099,227.233539 C529.848033,216.687286 536,204.492773 536,191.5 C536,151.459356 477.57316,119 405.5,119 C397.705123,119 390.069866,119.379674 382.650878,120.107551 C373.760767,60.0692457 322.010408,14 259.5,14 C212.989797,14 172.436298,39.5036833 151.061453,77.2891008 C146.000517,76.4412751 140.801791,76 135.5,76 C83.8613759,76 42,117.861376 42,169.5 C42,184.568637 45.5646107,198.804714 51.8965939,211.410994 C46.8872063,209.237193 41.1274879,208 35,208 C15.6700338,208 0,220.312169 0,235.5 C0,250.687831 15.6700338,263 35,263 C35.368157,263 35.7349863,262.995534 36.100405,262.986667 C37.2544374,263.632011 38.584827,264 40.0011698,264 L505.99883,264 C507.411564,264 508.739341,263.633652 509.89191,262.990792 Z" id="Combined-Shape" fill="#C6C6C6" filter="url(#filter-2)"></path>
        <path d="M509.89191,248.990792 C524.943134,248.679607 537,240.5201 537,230.5 C537,222.629081 529.560544,215.906206 519.074099,213.233539 C529.848033,202.687286 536,190.492773 536,177.5 C536,137.459356 477.57316,105 405.5,105 C397.705123,105 390.069866,105.379674 382.650878,106.107551 C373.760767,46.0692457 322.010408,0 259.5,0 C212.989797,0 172.436298,25.5036833 151.061453,63.2891008 C146.000517,62.4412751 140.801791,62 135.5,62 C83.8613759,62 42,103.861376 42,155.5 C42,170.568637 45.5646107,184.804714 51.8965939,197.410994 C46.8872063,195.237193 41.1274879,194 35,194 C15.6700338,194 0,206.312169 0,221.5 C0,236.687831 15.6700338,249 35,249 C35.368157,249 35.7349863,248.995534 36.100405,248.986667 C37.2544374,249.632011 38.584827,250 40.0011698,250 L505.99883,250 C507.411564,250 508.739341,249.633652 509.89191,248.990792 Z" id="Combined-Shape-Copy" fill="url(#radialGradient-3)"></path>
    </g>
</svg>
