
<svg width="1264px" height="1266px" viewBox="-244 -254 1264 1266" version="1.1" xmlns="http://www.w3.org/2000/svg" xmlns:xlink="http://www.w3.org/1999/xlink">
    <!-- Generator: Sketch 42 (36781) - http://www.bohemiancoding.com/sketch -->
    <desc>Created with Sketch.</desc>
    <defs>
        <filter x="-50%" y="-50%" width="200%" height="200%" filterUnits="objectBoundingBox" id="filter-1">
            <feOffset dx="0" dy="2" in="SourceAlpha" result="shadowOffsetOuter1"></feOffset>
            <feGaussianBlur stdDeviation="32.5" in="shadowOffsetOuter1" result="shadowBlurOuter1"></feGaussianBlur>
            <feColorMatrix values="0 0 0 0 1   0 0 0 0 1   0 0 0 0 1  0 0 0 1 0" type="matrix" in="shadowBlurOuter1" result="shadowMatrixOuter1"></feColorMatrix>
            <feMerge>
                <feMergeNode in="shadowMatrixOuter1"></feMergeNode>
                <feMergeNode in="SourceGraphic"></feMergeNode>
            </feMerge>
        </filter>
        <polygon id="path-2" points="-5.68434189e-14 779 779 779 779 -2.27373675e-13 -5.68434189e-14 -2.27373675e-13"></polygon>
        <radialGradient cx="44.5956246%" cy="27.3441416%" fx="44.5956246%" fy="27.3441416%" r="33.5425778%" id="radialGradient-4">
            <stop stop-color="#CEE8FC" offset="0%"></stop>
            <stop stop-color="#88C9F9" offset="100%"></stop>
        </radialGradient>
        <path d="M389.5,779 C174.387806,779 0,604.612194 0,389.5 L0,389.5 C0,174.387806 174.387806,0 389.5,0 L389.5,0 C604.612194,0 779,174.387806 779,389.5 L779,389.5 C779,604.612194 604.612194,779 389.5,779 Z" id="path-5"></path>
        <path d="M389.5,779 C174.387806,779 0,604.612194 0,389.5 L0,389.5 C0,174.387806 174.387806,0 389.5,0 L389.5,0 C604.612194,0 779,174.387806 779,389.5 L779,389.5 C779,604.612194 604.612194,779 389.5,779 Z" id="path-7"></path>
    </defs>
    <g id="1f30f" filter="url(#filter-1)" stroke="none" stroke-width="1" fill="none" fill-rule="evenodd" transform="translate(389.764516, 381.358985) rotate(-238.000000) translate(-389.764516, -381.358985) translate(-4.235484, -8.641015)">
        <g id="svg2" transform="translate(-0.000000, 0.000000)">
            <g id="g10" transform="translate(394.000000, 390.000000) scale(-1, 1) rotate(-180.000000) translate(-394.000000, -390.000000) translate(-0.000000, 0.000000)">
                <g id="g12" transform="translate(9.000000, -0.000000)">
                    <g id="g14-Clipped" transform="translate(-0.000000, -0.000000)">
                        <mask id="mask-3" fill="white">
                            <use xlink:href="#path-2"></use>
                        </mask>
                        <g id="path18"></g>
                        <g id="g14" mask="url(#mask-3)">
                            <g transform="translate(-0.000000, -0.000000)" id="g20">
                                <g transform="translate(-0.000000, -0.000000)">
                                    <path d="M779,389.5 C779,174.387806 604.612194,-2.27373675e-13 389.5,-2.27373675e-13 C174.387806,-2.27373675e-13 -5.68434189e-14,174.387806 -5.68434189e-14,389.5 C-5.68434189e-14,604.612194 174.387806,779 389.5,779 C604.612194,779 779,604.612194 779,389.5" id="path22" fill="url(#radialGradient-4)" fill-rule="nonzero"></path>
                                </g>
                            </g>
                        </g>
                    </g>
                </g>
                <g id="g24-copy" transform="translate(9.000000, -0.000000)">
                    <g id="g26-Clipped">
                        <mask id="mask-6" fill="white">
                            <use xlink:href="#path-5"></use>
                        </mask>
                        <g id="path30"></g>
                        <g id="g26" mask="url(#mask-6)">
                            <g transform="translate(-63.555556, 54.277778)">
                                <g id="g32" transform="translate(0.876736, 115.538194)">
                                    <path d="M229.027778,562.611111 C279.338194,553.176556 303.422278,562.611111 322.334667,555.859778 C341.268694,549.086806 323.697917,539.630611 337.222222,531.516028 C350.746528,523.401444 354.793,524.743056 365.612444,528.811167 C376.431889,532.857639 384.546472,548.048139 392.661056,542.335472 C400.775639,536.601167 429.1875,541.707944 435.960472,531.516028 C442.711806,521.302472 452.189639,513.296083 467.055556,520.696583 C481.943111,528.075444 538.745194,534.999889 553.611111,525.803361 C568.498667,516.628472 606.345083,514.983917 621.232639,512.560361 C636.098556,510.158444 673.966611,508.88175 668.556889,502.606472 C663.147167,496.331194 683.444444,500.399306 672.625,485.51175 C661.805556,470.645833 619.869389,439.55075 615.822917,443.597222 C611.754806,447.665333 607.708333,466.599361 594.184028,465.236111 C580.659722,463.8945 561.725694,467.940972 560.384083,451.711806 C559.020833,435.482639 538.745194,415.207 553.611111,415.207 C568.498667,415.207 583.364583,430.072917 587.411056,415.207 C591.479167,400.319444 588.774306,392.204861 584.706194,384.090278 C580.659722,375.975694 590.115917,375.975694 568.498667,370.565972 C546.859778,365.15625 556.315972,382.727028 546.859778,365.15625 C537.381944,347.563833 515.743056,342.154111 521.152778,327.288194 C526.5625,312.400639 530.630611,304.286056 531.972222,292.125 C533.335472,279.942306 518.447917,265.076389 510.333333,254.256944 C502.21875,243.4375 492.762556,232.618056 480.579861,229.913194 C468.418806,227.208333 458.940972,224.503472 452.189639,206.932694 C445.416667,189.340278 459.5685,163.654917 439.639083,166.359778 C419.731306,169.064639 408.911861,181.225694 407.548611,190.703528 C406.207,200.159722 385.909722,219.09375 384.546472,224.503472 C383.204861,229.913194 357.497861,248.847222 357.497861,248.847222 C357.497861,248.847222 341.268694,232.618056 341.268694,213.684028 C341.268694,194.75 346.678417,171.7695 346.678417,171.7695 C346.678417,171.7695 339.927083,162.291667 326.402778,173.111111 C312.878472,183.930556 298.012556,186.635417 291.239583,201.522972 C284.48825,216.388889 276.373667,242.07425 276.373667,251.552083 C276.373667,261.008278 260.122861,281.305556 253.371528,281.305556 C246.598556,281.305556 212.798611,277.237444 210.09375,271.827722 C207.388889,266.418 199.274306,256.961806 192.522972,250.188833 C185.75,243.4375 166.815972,219.09375 160.043,223.140222 C153.291667,227.208333 126.243056,242.07425 126.243056,255.598556 C126.243056,269.122861 107.309028,261.008278 105.967417,282.647167 C104.604167,304.286056 95.1479722,323.220083 92.4431111,302.944444 C89.73825,282.647167 91.0798611,275.895833 99.1944444,251.552083 C107.309028,227.208333 112.71875,219.09375 124.901444,213.684028 C137.0625,208.274306 130.311167,198.818111 150.586806,201.522972 C170.862444,204.227833 183.045139,210.979167 184.38675,202.864583 C185.75,194.75 196.569444,179.494583 176.272167,166.165028 C155.996528,152.835472 158.701389,151.472222 146.518694,139.311167 C134.357639,127.128472 122.196583,131.196583 122.196583,105.489583 C122.196583,79.8042222 122.196583,75.7361111 123.538194,54.0972222 C124.901444,32.4583333 127.606306,12.1826944 108.672278,1.36325 C89.73825,-9.45619444 27.5048056,66.2799167 22.0950833,109.557694 C16.6853611,152.835472 -6.29513889,297.534722 1.81944444,331.334667 C9.93402778,365.15625 53.2118056,469.304222 70.8042222,489.579861 C88.375,509.8555 185.75,570.725694 229.027778,562.611111" id="path34" fill="#496B33" fill-rule="nonzero"></path>
                                </g>
                                <g id="g36" transform="translate(402.786458, 194.626736)">
                                    <path d="M5.63888889,62.9166667 C5.63888889,48.05075 -5.18055556,31.8215833 5.63888889,16.9340278 C16.4583333,2.04647222 25.9145278,2.04647222 35.3923611,0.704861111 C44.8485556,-0.658388889 71.9188056,0.704861111 50.2799167,18.2756389 C28.6193889,35.8680556 16.4583333,22.34375 19.1631944,42.6410278 C21.8680556,62.9166667 5.63888889,62.9166667 5.63888889,62.9166667" id="path38" fill="#496B33" fill-rule="nonzero"></path>
                                </g>
                                <g id="g40" transform="translate(545.258681, 398.376736)">
                                    <path d="M14.6388889,75.5555556 C14.6388889,60.6896389 3.81944444,44.4604722 14.6388889,29.5729167 C25.4583333,14.6853611 -7,2.52430556 2.47783333,1.16105556 C11.9340278,-0.180555556 52.5069444,5.22916667 30.8680556,22.7999444 C9.22916667,40.3923611 25.4583333,34.9826389 28.1631944,55.2799167 C30.8680556,75.5555556 14.6388889,75.5555556 14.6388889,75.5555556" id="path42" fill="#496B33" fill-rule="nonzero"></path>
                                </g>
                                <g id="g44" transform="translate(458.604822, 202.979167)">
                                    <path d="M2.63888889,34.2777778 C12.0950833,52.1515 22.8496111,51.8485556 33.6690556,43.7339722 C44.4885,35.6193889 76.9468333,20.7534722 59.3760556,14.0021389 C41.7836389,7.22916667 46.9769722,-7.63675 33.5608611,7.22916667 C20.14475,22.1167222 -8.11563889,14.0021389 2.63888889,34.2777778" id="path46" fill="#496B33" fill-rule="nonzero"></path>
                                </g>
                                <g id="g48" transform="translate(537.734375, 161.330411)">
                                    <path d="M8.63888889,64.9166667 C15.9744722,61.1298611 27.5729167,48.88225 43.8020833,50.2238611 C60.03125,51.5871111 58.6896389,33.2373333 74.9188056,33.6268333 C91.1479722,33.9946944 106.013889,29.9482222 112.765222,21.8336389 C119.538194,13.7190556 149.205111,1.53636111 132.348417,0.19475 C115.470083,-1.1685 108.71875,11.0141944 91.1479722,16.4239167 C73.5555556,21.8336389 72.2139444,6.94608333 53.2799167,17.7655278 C34.32425,28.5849722 14.0486111,12.9616944 8.63888889,33.6268333 C3.22916667,54.2919722 -7.30897222,73.1394444 8.63888889,64.9166667" id="path50" fill="#496B33" fill-rule="nonzero"></path>
                                </g>
                                <g id="g52" transform="translate(391.978297, 0.819444)">
                                    <path d="M11.6388889,122.833333 C24.0596111,134.907833 32.6718889,143.108972 51.6059167,152.586806 C70.5399444,162.043 102.998278,175.588944 111.112861,176.930556 C119.227444,178.293806 128.705278,182.015694 134.115,171.304444 C139.524722,160.593194 146.276056,156.611639 157.0955,160.593194 C167.914944,164.57475 180.616972,162.23775 188.731556,155.399861 C196.846139,148.561972 216.602444,136.357639 223.375417,122.833333 C230.12675,109.309028 243.651056,112.013889 239.604583,95.7847222 C235.536472,79.5555556 240.946194,53.8485556 226.080278,40.32425 C211.192722,26.8215833 201.736528,10.5924167 185.507361,2.47783333 C169.278194,-5.63675 126.433194,14.6388889 126.433194,26.8215833 C126.433194,38.9826389 110.853194,49.0014444 98.9950833,59.8208889 C87.1153333,70.6403333 80.0826944,68.7361111 69.26325,60.6215278 C58.4438056,52.5069444 62.4253611,44.3923611 48.9010556,41.6875 C35.37675,38.9826389 -0.630361111,10.5924167 0.732888889,32.2313056 C2.0745,53.8485556 20.3593611,91.73825 11.6388889,103.899306 C2.91841667,116.082 -7.79283333,103.920944 11.6388889,122.833333" id="path54" fill="#496B33" fill-rule="nonzero"></path>
                                </g>
                            </g>
                        </g>
                    </g>
                </g>
                <g id="g24" transform="translate(0.519519, 0.700807)">
                    <g id="g26-Clipped">
                        <mask id="mask-8" fill="white">
                            <use xlink:href="#path-7"></use>
                        </mask>
                        <g id="path30"></g>
                        <g id="g26" mask="url(#mask-8)">
                            <g transform="translate(-63.555556, 60.277778)">
                                <g id="g32" transform="translate(0.876736, 115.538194)">
                                    <path d="M229.027778,562.611111 C279.338194,553.176556 303.422278,562.611111 322.334667,555.859778 C341.268694,549.086806 323.697917,539.630611 337.222222,531.516028 C350.746528,523.401444 354.793,524.743056 365.612444,528.811167 C376.431889,532.857639 384.546472,548.048139 392.661056,542.335472 C400.775639,536.601167 429.1875,541.707944 435.960472,531.516028 C442.711806,521.302472 452.189639,513.296083 467.055556,520.696583 C481.943111,528.075444 538.745194,534.999889 553.611111,525.803361 C568.498667,516.628472 606.345083,514.983917 621.232639,512.560361 C636.098556,510.158444 673.966611,508.88175 668.556889,502.606472 C663.147167,496.331194 683.444444,500.399306 672.625,485.51175 C661.805556,470.645833 619.869389,439.55075 615.822917,443.597222 C611.754806,447.665333 607.708333,466.599361 594.184028,465.236111 C580.659722,463.8945 561.725694,467.940972 560.384083,451.711806 C559.020833,435.482639 538.745194,415.207 553.611111,415.207 C568.498667,415.207 583.364583,430.072917 587.411056,415.207 C591.479167,400.319444 588.774306,392.204861 584.706194,384.090278 C580.659722,375.975694 590.115917,375.975694 568.498667,370.565972 C546.859778,365.15625 556.315972,382.727028 546.859778,365.15625 C537.381944,347.563833 515.743056,342.154111 521.152778,327.288194 C526.5625,312.400639 530.630611,304.286056 531.972222,292.125 C533.335472,279.942306 518.447917,265.076389 510.333333,254.256944 C502.21875,243.4375 492.762556,232.618056 480.579861,229.913194 C468.418806,227.208333 458.940972,224.503472 452.189639,206.932694 C445.416667,189.340278 459.5685,163.654917 439.639083,166.359778 C419.731306,169.064639 408.911861,181.225694 407.548611,190.703528 C406.207,200.159722 385.909722,219.09375 384.546472,224.503472 C383.204861,229.913194 357.497861,248.847222 357.497861,248.847222 C357.497861,248.847222 341.268694,232.618056 341.268694,213.684028 C341.268694,194.75 346.678417,171.7695 346.678417,171.7695 C346.678417,171.7695 339.927083,162.291667 326.402778,173.111111 C312.878472,183.930556 298.012556,186.635417 291.239583,201.522972 C284.48825,216.388889 276.373667,242.07425 276.373667,251.552083 C276.373667,261.008278 260.122861,281.305556 253.371528,281.305556 C246.598556,281.305556 212.798611,277.237444 210.09375,271.827722 C207.388889,266.418 199.274306,256.961806 192.522972,250.188833 C185.75,243.4375 166.815972,219.09375 160.043,223.140222 C153.291667,227.208333 126.243056,242.07425 126.243056,255.598556 C126.243056,269.122861 107.309028,261.008278 105.967417,282.647167 C104.604167,304.286056 95.1479722,323.220083 92.4431111,302.944444 C89.73825,282.647167 91.0798611,275.895833 99.1944444,251.552083 C107.309028,227.208333 112.71875,219.09375 124.901444,213.684028 C137.0625,208.274306 130.311167,198.818111 150.586806,201.522972 C170.862444,204.227833 183.045139,210.979167 184.38675,202.864583 C185.75,194.75 196.569444,179.494583 176.272167,166.165028 C155.996528,152.835472 158.701389,151.472222 146.518694,139.311167 C134.357639,127.128472 122.196583,131.196583 122.196583,105.489583 C122.196583,79.8042222 122.196583,75.7361111 123.538194,54.0972222 C124.901444,32.4583333 127.606306,12.1826944 108.672278,1.36325 C89.73825,-9.45619444 27.5048056,66.2799167 22.0950833,109.557694 C16.6853611,152.835472 -6.29513889,297.534722 1.81944444,331.334667 C9.93402778,365.15625 53.2118056,469.304222 70.8042222,489.579861 C88.375,509.8555 185.75,570.725694 229.027778,562.611111" id="path34" fill="#5C913B" fill-rule="nonzero"></path>
                                </g>
                                <g id="g36" transform="translate(402.786458, 194.626736)">
                                    <path d="M5.63888889,62.9166667 C5.63888889,48.05075 -5.18055556,31.8215833 5.63888889,16.9340278 C16.4583333,2.04647222 25.9145278,2.04647222 35.3923611,0.704861111 C44.8485556,-0.658388889 71.9188056,0.704861111 50.2799167,18.2756389 C28.6193889,35.8680556 16.4583333,22.34375 19.1631944,42.6410278 C21.8680556,62.9166667 5.63888889,62.9166667 5.63888889,62.9166667" id="path38" fill="#5C913B" fill-rule="nonzero"></path>
                                </g>
                                <g id="g40" transform="translate(545.258681, 398.376736)">
                                    <path d="M14.6388889,75.5555556 C14.6388889,60.6896389 3.81944444,44.4604722 14.6388889,29.5729167 C25.4583333,14.6853611 -7,2.52430556 2.47783333,1.16105556 C11.9340278,-0.180555556 52.5069444,5.22916667 30.8680556,22.7999444 C9.22916667,40.3923611 25.4583333,34.9826389 28.1631944,55.2799167 C30.8680556,75.5555556 14.6388889,75.5555556 14.6388889,75.5555556" id="path42" fill="#5C913B" fill-rule="nonzero"></path>
                                </g>
                                <g id="g44" transform="translate(458.604822, 202.979167)">
                                    <path d="M2.63888889,34.2777778 C12.0950833,52.1515 22.8496111,51.8485556 33.6690556,43.7339722 C44.4885,35.6193889 76.9468333,20.7534722 59.3760556,14.0021389 C41.7836389,7.22916667 46.9769722,-7.63675 33.5608611,7.22916667 C20.14475,22.1167222 -8.11563889,14.0021389 2.63888889,34.2777778" id="path46" fill="#5C913B" fill-rule="nonzero"></path>
                                </g>
                                <g id="g48" transform="translate(537.734375, 161.330411)">
                                    <path d="M8.63888889,64.9166667 C15.9744722,61.1298611 27.5729167,48.88225 43.8020833,50.2238611 C60.03125,51.5871111 58.6896389,33.2373333 74.9188056,33.6268333 C91.1479722,33.9946944 106.013889,29.9482222 112.765222,21.8336389 C119.538194,13.7190556 149.205111,1.53636111 132.348417,0.19475 C115.470083,-1.1685 108.71875,11.0141944 91.1479722,16.4239167 C73.5555556,21.8336389 72.2139444,6.94608333 53.2799167,17.7655278 C34.32425,28.5849722 14.0486111,12.9616944 8.63888889,33.6268333 C3.22916667,54.2919722 -7.30897222,73.1394444 8.63888889,64.9166667" id="path50" fill="#5C913B" fill-rule="nonzero"></path>
                                </g>
                                <g id="g52" transform="translate(391.978297, 0.819444)">
                                    <path d="M11.6388889,122.833333 C24.0596111,134.907833 32.6718889,143.108972 51.6059167,152.586806 C70.5399444,162.043 102.998278,175.588944 111.112861,176.930556 C119.227444,178.293806 128.705278,182.015694 134.115,171.304444 C139.524722,160.593194 146.276056,156.611639 157.0955,160.593194 C167.914944,164.57475 180.616972,162.23775 188.731556,155.399861 C196.846139,148.561972 216.602444,136.357639 223.375417,122.833333 C230.12675,109.309028 243.651056,112.013889 239.604583,95.7847222 C235.536472,79.5555556 240.946194,53.8485556 226.080278,40.32425 C211.192722,26.8215833 201.736528,10.5924167 185.507361,2.47783333 C169.278194,-5.63675 126.433194,14.6388889 126.433194,26.8215833 C126.433194,38.9826389 110.853194,49.0014444 98.9950833,59.8208889 C87.1153333,70.6403333 80.0826944,68.7361111 69.26325,60.6215278 C58.4438056,52.5069444 62.4253611,44.3923611 48.9010556,41.6875 C35.37675,38.9826389 -0.630361111,10.5924167 0.732888889,32.2313056 C2.0745,53.8485556 20.3593611,91.73825 11.6388889,103.899306 C2.91841667,116.082 -7.79283333,103.920944 11.6388889,122.833333" id="path54" fill="#5C913B" fill-rule="nonzero"></path>
                                </g>
                            </g>
                        </g>
                    </g>
                </g>
            </g>
        </g>
    </g>
</svg>
