<?xml version="1.0" encoding="iso-8859-1"?>
<!-- Generator: Adobe Illustrator 19.0.0, SVG Export Plug-In . SVG Version: 6.00 Build 0)  -->
<svg version="1.1" id="Layer_1" xmlns="http://www.w3.org/2000/svg" xmlns:xlink="http://www.w3.org/1999/xlink" x="0px" y="0px"
	 viewBox="0 0 394.22 394.22" style="enable-background:new 0 0 394.22 394.22;" xml:space="preserve">
<g>
	<g>
		
			<rect x="239.808" y="126.267" transform="matrix(-0.7071 0.7071 -0.7071 -0.7071 536.0048 51.9071)" style="fill:#1E252B;" width="34.889" height="21.393"/>
		
			<rect x="242.569" y="36.253" transform="matrix(-0.7071 0.7071 -0.7071 -0.7071 591.3747 -81.7578)" style="fill:#333E48;" width="140.103" height="90.692"/>
		
			<rect x="295.024" y="57.368" transform="matrix(-0.7071 0.7071 -0.7071 -0.7071 579.467 -39.9908)" style="fill:#1E252B;" width="5.983" height="85.297"/>
		
			<rect x="328.052" y="24.351" transform="matrix(-0.7072 0.707 -0.707 -0.7072 612.5299 -119.668)" style="fill:#1E252B;" width="5.985" height="85.297"/>
		
			<rect x="214.319" y="47.954" transform="matrix(-0.7071 0.7071 -0.7071 -0.7071 523.1741 -110.0087)" style="fill:#61B4E4;" width="140.103" height="10.79"/>
	</g>
	<g>
		
			<rect x="119.523" y="246.562" transform="matrix(0.7071 -0.7071 0.7071 0.7071 -141.7916 172.1996)" style="fill:#1E252B;" width="34.889" height="21.391"/>
		
			<rect x="11.549" y="267.276" transform="matrix(0.7071 -0.7071 0.7071 0.7071 -197.1569 149.2652)" style="fill:#333E48;" width="140.103" height="90.692"/>
		
			<rect x="97.037" y="255.35" transform="matrix(0.7073 -0.7069 0.7069 0.7073 -181.3802 157.9332)" style="fill:#1E252B;" width="5.984" height="85.299"/>
		
			<rect x="64.008" y="288.385" transform="matrix(0.7072 -0.707 0.707 0.7072 -214.4258 144.2946)" style="fill:#1E252B;" width="5.986" height="85.297"/>
		
			<rect x="-16.701" y="278.977" transform="matrix(0.7071 -0.7071 0.7071 0.7071 -185.4554 121.0153)" style="fill:#61B4E4;" width="140.103" height="10.79"/>
	</g>
	<g>
		<circle style="fill:#C3C6C8;" cx="197.111" cy="197.107" r="77.749"/>
		<path style="fill:#333E48;" d="M221.062,123.123l-97.937,97.936c3.662,11.346,9.999,22.017,19.009,31.025
			c9.009,9.01,19.681,15.346,31.025,19.009l97.936-97.936c-3.663-11.346-9.999-22.017-19.008-31.026
			C243.078,133.122,232.407,126.786,221.062,123.123z"/>
		<path style="fill:#333E48;" d="M142.135,142.131c-14.817,14.815-22.397,34.123-22.756,53.538l76.293-76.293
			C176.258,119.733,156.949,127.315,142.135,142.131z"/>
		<g>
			
				<rect x="190.197" y="209.693" transform="matrix(0.7071 0.7071 -0.7071 0.7071 211.2966 -76.1014)" style="fill:#61B4E4;" width="14.627" height="14.627"/>
			
				<rect x="179.857" y="199.349" transform="matrix(0.7071 0.7071 -0.7071 0.7071 200.9537 -71.819)" style="fill:#FFFFFF;" width="14.627" height="14.628"/>
			
				<rect x="169.501" y="189.005" transform="matrix(0.7071 0.7071 -0.7071 0.7071 190.6064 -67.5266)" style="fill:#005CB9;" width="14.628" height="14.628"/>
			
				<rect x="179.868" y="220.037" transform="matrix(0.7071 0.7071 -0.7071 0.7071 215.5851 -65.7683)" style="fill:#FFFFFF;" width="14.628" height="14.626"/>
			
				<rect x="169.527" y="209.695" transform="matrix(0.7071 0.7071 -0.7071 0.7071 205.2429 -61.4848)" style="fill:#005CB9;" width="14.626" height="14.626"/>
			
				<rect x="159.156" y="199.348" transform="matrix(0.7071 0.7071 -0.7071 0.7071 194.8892 -57.1821)" style="fill:#61B4E4;" width="14.628" height="14.627"/>
			
				<rect x="169.499" y="230.375" transform="matrix(0.7071 0.7071 -0.7071 0.7071 219.859 -55.4084)" style="fill:#61B4E4;" width="14.628" height="14.628"/>
			
				<rect x="159.184" y="220.037" transform="matrix(0.7071 0.7071 -0.7071 0.7071 209.5268 -51.1413)" style="fill:#FFFFFF;" width="14.626" height="14.627"/>
			
				<rect x="148.827" y="209.693" transform="matrix(0.7071 0.7071 -0.7071 0.7071 199.1793 -46.8484)" style="fill:#005CB9;" width="14.627" height="14.627"/>
		</g>
		<circle style="fill:#FEE050;" cx="207.195" cy="169.569" r="9.874"/>
		<circle style="fill:#333E48;" cx="236.839" cy="232.182" r="7.547"/>
		<circle style="fill:#333E48;" cx="212.738" cy="256.283" r="7.547"/>
		<circle style="fill:#333E48;" cx="260.941" cy="208.08" r="7.547"/>
	</g>
</g>
<g>
</g>
<g>
</g>
<g>
</g>
<g>
</g>
<g>
</g>
<g>
</g>
<g>
</g>
<g>
</g>
<g>
</g>
<g>
</g>
<g>
</g>
<g>
</g>
<g>
</g>
<g>
</g>
<g>
</g>
</svg>
