<svg xmlns="http://www.w3.org/2000/svg" xmlns:xlink="http://www.w3.org/1999/xlink" viewBox="0 0 384.84 294.56"><defs><style>.a,.f,.j,.o{fill:none;}.b,.c{fill:#fff;}.b,.e,.f,.j{stroke:#400d13;}.b,.e,.f,.j,.o{stroke-miterlimit:3.86;}.b,.o{stroke-width:6px;}.d{clip-path:url(#a);}.e,.h{fill:#bac7bf;}.f{stroke-width:2px;}.g{clip-path:url(#b);}.i{clip-path:url(#c);}.j{stroke-width:1px;}.k{clip-path:url(#d);}.l{fill:#a02031;}.m{clip-path:url(#e);}.n{clip-path:url(#f);}.o{stroke:#6f0;stroke-linecap:round;}</style><clipPath id="a" transform="translate(-0.94 -0.67)"><polygon class="a" points="242.9 111.7 247.4 68.9 379.3 3.8 381.6 4.9 356.2 54.3 245.1 112.8 242.9 111.7"/></clipPath><clipPath id="b" transform="translate(-0.94 -0.67)"><path class="a" d="M157.8,140.4A51.61,51.61,0,1,1,227.3,163a51.66,51.66,0,0,1-69.5-22.6h0Z"/></clipPath><clipPath id="c" transform="translate(-0.94 -0.67)"><path class="a" d="M289.7,160.2c7.1,13.9-9.8,36.8-37.7,51s-56.3,14.4-63.4.5c-10.7-20.9,3.3-49.4,31.2-63.6s59.2-8.8,69.9,12.1h0Z"/></clipPath><clipPath id="d" transform="translate(-0.94 -0.67)"><path class="a" d="M218,175.5c-1.8-3.5,2.4-9.1,9.4-12.7s14-3.6,15.8-.1c1,2,0,4.8-2.4,7.5,0.1,8.1,8.3,32.9,25.8,67.2l-1.8.9c-17.5-34.3-32.7-55.4-39.2-60.3-3.7.4-6.6-.4-7.6-2.5h0Z"/></clipPath><clipPath id="e" transform="translate(-0.94 -0.67)"><path class="a" d="M261.6,246.1a7.07,7.07,0,1,1,9.5,3.1,7.14,7.14,0,0,1-9.5-3.1h0Z"/></clipPath><clipPath id="f" transform="translate(-0.94 -0.67)"><polygon class="a" points="159.8 114.2 162.7 156.2 17 233.3 14.8 232.2 4.4 187.6 157.5 113.1 159.8 114.2"/></clipPath></defs><title>satellite-icon-green</title><path class="b" d="M261.6,246.1A7.1,7.1,0,0,1,264,237c-4.8-9.3-9.4-17.6-13.7-24.9-27.3,13.4-54.7,13.3-61.7-.4-6.8-13.4-3.6-29.9,7-43.8A51.47,51.47,0,0,1,162,147.3l0.6,8.8L17,233.4l-2.2-1.1L4.4,187.6l147.8-71.8a51.61,51.61,0,0,1,93.3-29.1L247.4,69l132-65,2.3,1.1L356.3,54.5,254.7,108a51.65,51.65,0,0,1-4.7,32.4c17.5-.5,32.9,6.6,39.8,20,7,13.7-9.1,35.9-36,50.1,3.4,7.7,7.4,16.4,12.1,25.7a7.23,7.23,0,0,1,8.5,3.5,7,7,0,0,1-3.1,9.5,7.23,7.23,0,0,1-9.7-3.1h0Z" transform="translate(-0.94 -0.67)"/><polygon class="c" points="241.97 111.03 246.47 68.23 378.37 3.13 380.67 4.24 355.26 53.63 244.16 112.14 241.97 111.03"/><g class="d"><polygon class="e" points="244.76 112.64 249.16 69.83 381.17 4.74 355.76 54.13 244.76 112.64"/></g><polygon class="f" points="241.97 111.03 246.47 68.23 378.37 3.13 380.67 4.24 355.26 53.63 244.16 112.14 241.97 111.03"/><path class="c" d="M157.8,140.4A51.61,51.61,0,1,1,227.3,163a51.66,51.66,0,0,1-69.5-22.6h0Z" transform="translate(-0.94 -0.67)"/><g class="g"><path class="h" d="M160.5,120.6c45.5,34.3,93.5-3.7,93.7-12.7,6.5,2.2,1.3,6.4,1.3,6.4l-0.2,7.5-1.5,8.3-2,6.1-3.3,6.7-43,27.5-10.3-1.8L188,166l-5.9-2.3-6.7-3.7-6.4-5-8.6-7.6-5.5-7.6,2.6-17,3-2.2h0Z" transform="translate(-0.94 -0.67)"/></g><path class="f" d="M157.8,140.4A51.61,51.61,0,1,1,227.3,163a51.66,51.66,0,0,1-69.5-22.6h0Z" transform="translate(-0.94 -0.67)"/><path class="c" d="M289.7,160.2c7.1,13.9-9.8,36.8-37.7,51s-56.3,14.4-63.4.5c-10.7-20.9,3.3-49.4,31.2-63.6s59.2-8.8,69.9,12.1h0Z" transform="translate(-0.94 -0.67)"/><g class="i"><path class="h" d="M189.6,194.2c5.3-11.6,18.7-24.3,36.7-33.5,27.9-14.2,56.3-14.4,63.4-.5,6,11.8-5.2,30.1-25.7,44-9.1-17.7-39.8-21-74.4-10h0Z" transform="translate(-0.94 -0.67)"/></g><path class="f" d="M289.7,160.2c7.1,13.9-9.8,36.8-37.7,51s-56.3,14.4-63.4.5c-10.7-20.9,3.3-49.4,31.2-63.6s59.2-8.8,69.9,12.1h0Z" transform="translate(-0.94 -0.67)"/><path class="j" d="M196.1,201.7c-5.7-11.2,7.8-29.4,30.1-40.8s45-11.5,50.7-.4-7.8,29.4-30.1,40.8-45,11.6-50.7.4h0Zm5.8-8.5c-4.5-8.9,6.2-23.5,24.1-32.6s36-9.2,40.6-.3-6.2,23.5-24.1,32.6-36,9.2-40.6.3h0Zm4.9-6.4c-3.6-7.1,5-18.8,19.3-26.1s28.8-7.4,32.4-.2-5,18.8-19.3,26.1-28.8,7.3-32.4.2h0Zm4-4.9c-2.9-5.7,4-15.1,15.4-20.9s23-5.9,26-.2-4,15.1-15.4,20.9-23.1,5.9-26,.2h0Zm3.5-3.4c-2.3-4.6,3.2-12.1,12.3-16.7s18.4-4.7,20.8-.2-3.2,12.1-12.3,16.7-18.5,4.7-20.8.2h0Z" transform="translate(-0.94 -0.67)"/><path class="c" d="M218,175.5c-1.8-3.5,2.4-9.1,9.4-12.7s14-3.6,15.8-.1c1,2,0,4.8-2.4,7.5,0.1,8.1,8.3,32.9,25.8,67.2l-1.8.9c-17.5-34.3-32.7-55.4-39.2-60.3-3.7.4-6.6-.4-7.6-2.5h0Z" transform="translate(-0.94 -0.67)"/><g class="k"><path class="l" d="M252.9,217.2c-9.1-18.9-3.1-15.5-3.1-15.5l-6.8-51-34.8,17.7,44.7,48.8h0Z" transform="translate(-0.94 -0.67)"/></g><path class="f" d="M218,175.5c-1.8-3.5,2.4-9.1,9.4-12.7s14-3.6,15.8-.1c1,2,0,4.8-2.4,7.5,0.1,8.1,8.3,32.9,25.8,67.2l-1.8.9c-17.5-34.3-32.7-55.4-39.2-60.3-3.7.4-6.6-.4-7.6-2.5h0Z" transform="translate(-0.94 -0.67)"/><path class="l" d="M261.6,246.1a7.07,7.07,0,1,1,9.5,3.1,7.14,7.14,0,0,1-9.5-3.1h0Z" transform="translate(-0.94 -0.67)"/><g class="m"><path class="c" d="M265.5,242a3.13,3.13,0,1,1,4.2,1.4,3.08,3.08,0,0,1-4.2-1.4h0Z" transform="translate(-0.94 -0.67)"/></g><path class="f" d="M261.6,246.1a7.07,7.07,0,1,1,9.5,3.1,7.14,7.14,0,0,1-9.5-3.1h0Zm-72.9-34.4c-7.1-13.9,9.7-36.8,37.6-51s56.3-14.4,63.4-.5" transform="translate(-0.94 -0.67)"/><polygon class="c" points="158.87 113.53 161.76 155.53 16.07 232.63 13.87 231.53 3.46 186.94 156.56 112.44 158.87 113.53"/><g class="n"><polygon class="e" points="16.66 233.13 6.17 188.53 159.37 114.03 162.26 156.03 16.66 233.13"/></g><polygon class="f" points="158.87 113.53 161.76 155.53 16.07 232.63 13.87 231.53 3.46 186.94 156.56 112.44 158.87 113.53"/><path class="o" d="M316.9,242.5a49.68,49.68,0,0,1-77.6,41.1m63.4-41.1a35.44,35.44,0,0,1-55.4,29.4m41.3-29.5a21.31,21.31,0,0,1-33.3,17.7" transform="translate(-0.94 -0.67)"/></svg>