
<svg width="557px" height="270px" viewBox="-10 -6 557 270" version="1.1" xmlns="http://www.w3.org/2000/svg" xmlns:xlink="http://www.w3.org/1999/xlink">
    <defs>
        <radialGradient cx="48.193814%" cy="116.835938%" fx="48.193814%" fy="116.835938%" r="169.204535%" id="radialGradient-1">
            <stop stop-color="#FFFFFF" offset="0%"></stop>
            <stop stop-color="#FFFFFF" offset="29.3019894%"></stop>
            <stop stop-color="#AFAFAF" offset="100%"></stop>
        </radialGradient>
        <path d="M509.89191,248.990792 C524.943134,248.679607 537,240.5201 537,230.5 C537,222.629081 529.560544,215.906206 519.074099,213.233539 C529.848033,202.687286 536,190.492773 536,177.5 C536,137.459356 477.57316,105 405.5,105 C397.705123,105 390.069866,105.379674 382.650878,106.107551 C373.760767,46.0692457 322.010408,0 259.5,0 C212.989797,0 172.436298,25.5036833 151.061453,63.2891008 C146.000517,62.4412751 140.801791,62 135.5,62 C83.8613759,62 42,103.861376 42,155.5 C42,170.568637 45.5646107,184.804714 51.8965939,197.410994 C46.8872063,195.237193 41.1274879,194 35,194 C15.6700338,194 0,206.312169 0,221.5 C0,236.687831 15.6700338,249 35,249 C35.368157,249 35.7349863,248.995534 36.100405,248.986667 C37.2544374,249.632011 38.584827,250 40.0011698,250 L505.99883,250 C507.411564,250 508.739341,249.633652 509.89191,248.990792 Z" id="path-2"></path>
    </defs>
    <g id="Group" stroke="none" stroke-width="1" fill="none" fill-rule="evenodd" transform="translate(0.000000, -6.000000)">
        <g id="Combined-Shape-Copy">
            <use fill="black" fill-opacity="1" xlink:href="#path-2"></use>
            <use fill="url(#radialGradient-1)" fill-rule="evenodd" xlink:href="#path-2"></use>
        </g>
    </g>
</svg>
