
<svg width="504px" height="536px" viewBox="-133 -80 504 536" version="1.1" xmlns="http://www.w3.org/2000/svg" xmlns:xlink="http://www.w3.org/1999/xlink">
    <!-- Generator: Sketch 42 (36781) - http://www.bohemiancoding.com/sketch -->
    <desc>Created with Sketch.</desc>
    <defs></defs>
    <g id="Group" stroke="none" stroke-width="1" fill="none" fill-rule="evenodd" transform="translate(-133.000000, -80.000000)">
        <g id="Group-3" transform="translate(35.000000, 0.000000)" fill="#DDDDDD">
            <path d="M206.335764,163.69071 C204.323185,158.196866 201.07921,153.408892 196.603819,149.326736 C192.588522,145.651718 188.113914,143.048619 183.179861,141.517361 C178.586088,139.952076 172.32504,139.169444 164.396528,139.169444 L147.859028,139.169444 L147.859028,164.405326 C145.861783,159.029147 142.651836,154.139078 138.229167,149.735069 C130.198571,141.704474 120.568806,137.689236 109.339583,137.689236 C97.9742487,137.689236 88.2424016,141.670446 80.14375,149.632986 C75.0935063,154.577576 71.6113401,160.125714 69.6972222,166.277467 L69.6972222,139.169444 L57.8045139,139.169444 L57.8045139,193.937153 L0.331597222,133.810069 L0.331597222,217.977778 L12.2243056,217.977778 L12.2243056,162.801736 L69.6972222,222.775694 L69.6972222,190.976542 C71.75625,197.91487 75.6297338,203.869769 81.3177083,208.841319 C89.4163599,215.885105 98.5527269,219.406944 108.727083,219.406944 C120.22853,219.406944 130.045445,215.442748 138.178125,207.514236 C142.627147,203.177374 145.854108,198.321958 147.859028,192.94794 L147.859028,217.977778 L164.192361,217.977778 C172.188929,217.977778 178.364909,217.246188 182.720486,215.782986 C187.382315,214.319784 191.839909,211.716685 196.093403,207.973611 C200.833344,203.785711 204.247457,198.87372 206.335764,193.237588 L206.335764,217.977778 L348.294556,217.977778 L348.294556,206.799653 L218.228472,206.799653 L218.228472,180.462153 L347.375806,180.462153 L347.375806,169.284028 L218.228472,169.284028 L218.228472,150.347569 L348.294556,150.347569 L348.294556,139.169444 L206.335764,139.169444 L206.335764,163.69071 Z M133.213072,63.8162393 L178.391285,38.4003522 L178.391285,83.6730018 L133.213072,109.088889 L133.213072,63.8162393 Z M178.436364,25.7888889 L133.213072,51.3777778 L133.213072,0.2 L178.436364,25.7888889 Z M121.769063,63.8162393 L76.5908497,38.4003522 L76.5908497,83.6730018 L121.769063,109.088889 L121.769063,63.8162393 Z M76.5908497,25.7888889 L121.814142,51.3777778 L121.814142,0.2 L76.5908497,25.7888889 Z M79.9395833,178.369444 C79.9395833,187.080599 82.865943,194.243375 88.71875,199.857986 C94.5375291,205.472598 101.257948,208.279861 108.880208,208.279861 C117.149,208.279861 124.124624,205.421556 129.807292,199.704861 C135.489959,193.92011 138.33125,186.87643 138.33125,178.573611 C138.33125,170.168708 135.523986,163.125028 129.909375,157.442361 C124.328792,151.725666 117.421222,148.867361 109.186458,148.867361 C100.985723,148.867361 94.0611394,151.725666 88.4125,157.442361 C82.7638606,163.091 79.9395833,170.066625 79.9395833,178.369444 Z M159.751736,206.799653 L165.111111,206.799653 C170.453499,206.799653 174.89408,206.2382 178.432986,205.115278 C181.971893,203.9243 185.170472,202.035777 188.028819,199.449653 C193.881626,194.107265 196.807986,187.148654 196.807986,178.573611 C196.807986,169.930512 193.915654,162.92086 188.130903,157.544444 C182.924627,152.746504 175.25144,150.347569 165.111111,150.347569 L159.751736,150.347569 L159.751736,206.799653 Z" id="Combined-Shape"></path>
        </g>
        <g id="Group-2" transform="translate(0.000000, 251.000000)" font-size="14" font-family="Menlo-Regular, Menlo" line-spacing="20" font-weight="normal">
            <text id="npm-install-awv3-nod">
                <tspan x="33" y="38" fill="#F1F1F0">npm install awv3-node --save</tspan>
                <tspan x="269.003906" y="38" fill="#FF6AC1"></tspan>
                <tspan x="33" y="58" fill="#FF6AC1"></tspan>
                <tspan x="33" y="78" fill="#FF6AC1"></tspan>
                <tspan x="33" y="98" fill="#FF6AC1">const</tspan>
                <tspan x="75.1435547" y="98" fill="#FFFFFF"> </tspan>
                <tspan x="83.5722656" y="98" fill="#FFFFFF">Server </tspan>
                <tspan x="142.573242" y="98" fill="#FF6AC1">=</tspan>
                <tspan x="151.001953" y="98" fill="#FFFFFF"> </tspan>
                <tspan x="159.430664" y="98" fill="#9AEDFE">require</tspan>
                <tspan x="218.431641" y="98" fill="#AAAAAA">(</tspan>
                <tspan x="226.860352" y="98" fill="#57EE89">'awv3-node/server'</tspan>
                <tspan x="378.577148" y="98" fill="#AAAAAA">)</tspan>
                <tspan x="387.005859" y="98" fill="#FFFFFF"></tspan>
                <tspan x="33" y="118" fill="#FFFFFF"></tspan>
                <tspan x="33" y="138" fill="#FF6AC1">new</tspan>
                <tspan x="58.2861328" y="138" fill="#FFFFFF"> </tspan>
                <tspan x="66.7148438" y="138" fill="#FFFFFF">Server</tspan>
                <tspan x="117.287109" y="138" fill="#AAAAAA">({</tspan>
                <tspan x="134.144531" y="138" fill="#FFFFFF"></tspan>
                <tspan x="33" y="158" fill="#FFFFFF">	</tspan>
                <tspan x="61" y="158" fill="#EFF59B">output</tspan>
                <tspan x="111.572266" y="158" fill="#FF6AC1">:</tspan>
                <tspan x="120.000977" y="158" fill="#FFFFFF"> </tspan>
                <tspan x="128.429688" y="158" fill="#FFFFFF">__dirname </tspan>
                <tspan x="212.716797" y="158" fill="#FF6AC1">+</tspan>
                <tspan x="221.145508" y="158" fill="#FFFFFF"></tspan>
                <tspan x="33" y="178" fill="#FFFFFF">		</tspan>
                <tspan x="89" y="178" fill="#5AF78E">'/node_modules/@awv/classcad_cadapplication'</tspan>
                <tspan x="459.863281" y="178" fill="#AAAAAA">,</tspan>
                <tspan x="468.291992" y="178" fill="#FFFFFF"></tspan>
                <tspan x="33" y="198" fill="#FFFFFF">	</tspan>
                <tspan x="61" y="198" fill="#EFF59B">config</tspan>
                <tspan x="111.572266" y="198" fill="#FF6AC1">:</tspan>
                <tspan x="120.000977" y="198" fill="#FFFFFF"> </tspan>
                <tspan x="128.429688" y="198" fill="#5AF78E">'CADApplication.ini'</tspan>
                <tspan x="297.003906" y="198" fill="#AAAAAA">,</tspan>
                <tspan x="305.432617" y="198" fill="#FFFFFF"></tspan>
                <tspan x="33" y="218" fill="#FFFFFF">	</tspan>
                <tspan x="61" y="218" fill="#EFF59B">publicport</tspan>
                <tspan x="145.287109" y="218" fill="#FF6AC1">:</tspan>
                <tspan x="153.71582" y="218" fill="#FFFFFF"> </tspan>
                <tspan x="162.144531" y="218" fill="#57C7FF">process</tspan>
                <tspan x="221.145508" y="218" fill="#FFFFFF">.</tspan>
                <tspan x="229.574219" y="218" fill="#57C7FF">env</tspan>
                <tspan x="254.860352" y="218" fill="#FFFFFF">.</tspan>
                <tspan x="263.289062" y="218" fill="#57C7FF">port</tspan>
                <tspan x="297.003906" y="218" fill="#FFFFFF"> </tspan>
                <tspan x="305.432617" y="218" fill="#FF6AC1">||</tspan>
                <tspan x="322.290039" y="218" fill="#FFFFFF"> 8181</tspan>
                <tspan x="364.433594" y="218" fill="#AAAAAA">,</tspan>
                <tspan x="372.862305" y="218" fill="#FFFFFF"></tspan>
                <tspan x="33" y="238" fill="#FFFFFF">	</tspan>
                <tspan x="61" y="238" fill="#EFF59B">privateport</tspan>
                <tspan x="153.71582" y="238" fill="#FF6AC1">:</tspan>
                <tspan x="162.144531" y="238" fill="#FFFFFF"> </tspan>
                <tspan x="170.573242" y="238" fill="#FFFFFF">9191</tspan>
                <tspan x="204.288086" y="238" fill="#AAAAAA">,</tspan>
                <tspan x="212.716797" y="238" fill="#FFFFFF"></tspan>
                <tspan x="33" y="258" fill="#FFFFFF">	</tspan>
                <tspan x="61" y="258" fill="#EFF59B">instances</tspan>
                <tspan x="136.858398" y="258" fill="#FF6AC1">:</tspan>
                <tspan x="145.287109" y="258" fill="#FFFFFF"> </tspan>
                <tspan x="153.71582" y="258" fill="#FFFFFF">3</tspan>
                <tspan x="33" y="278" fill="#AAAAAA">})</tspan>
                <tspan x="49.8574219" y="278" fill="#FF6AC1">.</tspan>
                <tspan x="58.2861328" y="278" fill="#9AEDFE">start</tspan>
                <tspan x="100.429688" y="278" fill="#AAAAAA">()</tspan>
            </text>
        </g>
    </g>
</svg>
