
<svg width="282px" height="282px" viewBox="161 192 282 282" version="1.1" xmlns="http://www.w3.org/2000/svg" xmlns:xlink="http://www.w3.org/1999/xlink">
    <!-- Generator: Sketch 42 (36781) - http://www.bohemiancoding.com/sketch -->
    <desc>Created with Sketch.</desc>
    <defs></defs>
    <g id="Logo" stroke="none" stroke-width="1" fill="none" fill-rule="evenodd" transform="translate(161.000000, 192.000000)">
        <circle id="Oval" fill="#0E1926" cx="141" cy="141" r="141"></circle>
        <g transform="translate(83.000000, 90.000000)" id="Group" fill="#363636">
            <g>
                <path d="M94.9296875,75.0722646 L94.9296875,63.8125 L114.898437,63.8125 L114.898437,68.9453125 L100.390625,68.9453125 L100.390625,77.640625 L114.476562,77.640625 L114.476562,82.7734375 L100.390625,82.7734375 L100.390625,94.8671875 L114.898437,94.8671875 L114.898437,100 L94.9296875,100 L94.9296875,88.6397086 C93.9707712,91.2277287 92.4030663,93.4832346 90.2265625,95.40625 C88.2734277,97.1250086 86.2265732,98.3203091 84.0859375,98.9921875 C82.0859275,99.6640659 79.2500184,100 75.578125,100 L68.078125,100 L68.078125,88.5067072 C67.1574985,90.9743686 65.6757307,93.2038964 63.6328125,95.1953125 C59.8984188,98.8359557 55.3906514,100.65625 50.109375,100.65625 C45.4374766,100.65625 41.2422061,99.0390787 37.5234375,95.8046875 C34.9116125,93.5218328 33.1329719,90.7874402 32.1875,87.6014732 L32.1875,102.203125 L5.796875,74.6640625 L5.796875,100 L0.3359375,100 L0.3359375,61.3515625 L26.7265625,88.9609375 L26.7265625,63.8125 L32.1875,63.8125 L32.1875,76.2600612 C33.0664317,73.4352766 34.6653855,70.8876625 36.984375,68.6171875 C40.7031436,64.9609192 45.1718489,63.1328125 50.390625,63.1328125 C55.5469008,63.1328125 59.9687316,64.9765441 63.65625,68.6640625 C65.6870675,70.6863112 67.1610228,72.9317514 68.078125,75.400405 L68.078125,63.8125 L75.671875,63.8125 C79.3125182,63.8125 82.1874895,64.1718714 84.296875,64.890625 C86.5625113,65.5937535 88.6171783,66.7890541 90.4609375,68.4765625 C92.5159638,70.3510216 94.005544,72.5495815 94.9296875,75.0722646 Z M73.5390625,94.8671875 L76,94.8671875 C78.4531373,94.8671875 80.4921794,94.6093776 82.1171875,94.09375 C83.7421956,93.5468723 85.2109309,92.6796934 86.5234375,91.4921875 C89.2109509,89.0390502 90.5546875,85.8437697 90.5546875,81.90625 C90.5546875,77.9374802 89.2265758,74.7187623 86.5703125,72.25 C84.1796755,70.046864 80.6562733,68.9453125 76,68.9453125 L73.5390625,68.9453125 L73.5390625,94.8671875 Z M36.890625,81.8125 C36.890625,85.81252 38.2343616,89.1015496 40.921875,91.6796875 C43.5937634,94.2578254 46.67967,95.546875 50.1796875,95.546875 C53.9765815,95.546875 57.1796745,94.2343881 59.7890625,91.609375 C62.3984505,88.9531117 63.703125,85.7187691 63.703125,81.90625 C63.703125,78.0468557 62.4140754,74.812513 59.8359375,72.203125 C57.2734247,69.5781119 54.1015814,68.265625 50.3203125,68.265625 C46.5546687,68.265625 43.375013,69.5781119 40.78125,72.203125 C38.187487,74.796888 36.890625,77.9999809 36.890625,81.8125 Z" id="NODE"></path>
                <g id="Group-3" transform="translate(35.000000, 0.000000)">
                    <g id="Group-2" transform="translate(26.352941, 0.000000)">
                        <polygon id="Rectangle" points="-3.55271368e-15 29.2115385 20.745098 17.5409781 20.745098 38.3294396 -3.55271368e-15 50"></polygon>
                        <polygon id="Triangle" points="20.7657973 11.75 0 23.5 3.20440842e-15 0"></polygon>
                    </g>
                    <g id="Group-2-Copy" transform="translate(10.852941, 25.000000) scale(-1, 1) translate(-10.852941, -25.000000) translate(0.352941, 0.000000)">
                        <polygon id="Rectangle" points="-3.55271368e-15 29.2115385 20.745098 17.5409781 20.745098 38.3294396 -3.55271368e-15 50"></polygon>
                        <polygon id="Triangle" points="20.7657973 11.75 0 23.5 3.20440842e-15 0"></polygon>
                    </g>
                </g>
            </g>
        </g>
    </g>
</svg>
