
<svg width="481px" height="260px" viewBox="0 0 481 260" version="1.1" xmlns="http://www.w3.org/2000/svg" xmlns:xlink="http://www.w3.org/1999/xlink">
    <!-- Generator: Sketch 42 (36781) - http://www.bohemiancoding.com/sketch -->
    <desc>Created with Sketch.</desc>
    <defs></defs>
    <text id="&gt;-npm-install-awv3-n" stroke="none" fill="none" font-family="Menlo-Regular, Menlo" font-size="14" font-weight="normal" line-spacing="20">
        <tspan x="0" y="13" fill="#FFFFFF"> &gt;  npm install awv3-node --save</tspan>
        <tspan x="269.71875" y="13" fill="#DADADA"></tspan>
        <tspan x="0" y="33" fill="#FF6AC1"></tspan>
        <tspan x="0" y="53" fill="#FF6AC1"></tspan>
        <tspan x="0" y="73" fill="#FFFFFF"> 1</tspan>
        <tspan x="16.8574219" y="73" fill="#FF6AC1">  const</tspan>
        <tspan x="75.8583984" y="73" fill="#000000"> </tspan>
        <tspan x="84.2871094" y="73" fill="#FFFFFF">Server </tspan>
        <tspan x="143.288086" y="73" fill="#FF6AC1">=</tspan>
        <tspan x="151.716797" y="73" fill="#FFFFFF"> </tspan>
        <tspan x="160.145508" y="73" fill="#9AEDFE">require</tspan>
        <tspan x="219.146484" y="73" fill="#AAAAAA">(</tspan>
        <tspan x="227.575195" y="73" fill="#57EE89">'awv3-node/server'</tspan>
        <tspan x="379.291992" y="73" fill="#AAAAAA">)</tspan>
        <tspan x="387.720703" y="73" fill="#FFFFFF"></tspan>
        <tspan x="0" y="93" fill="#FFFFFF"> 2</tspan>
        <tspan x="16.8574219" y="93" fill="#FFFFFF"></tspan>
        <tspan x="0" y="113" fill="#FFFFFF"> 3</tspan>
        <tspan x="16.8574219" y="113" fill="#FF6AC1">  new</tspan>
        <tspan x="59.0009766" y="113" fill="#FFFFFF"> </tspan>
        <tspan x="67.4296875" y="113" fill="#FFFFFF">Server</tspan>
        <tspan x="118.001953" y="113" fill="#AAAAAA">({</tspan>
        <tspan x="134.859375" y="113" fill="#FFFFFF"></tspan>
        <tspan x="0" y="133" fill="#FFFFFF"> 4</tspan>
        <tspan x="16.8574219" y="133" fill="#FFFFFF">      </tspan>
        <tspan x="67.4296875" y="133" fill="#EFF59B">output</tspan>
        <tspan x="118.001953" y="133" fill="#FF6AC1">:</tspan>
        <tspan x="126.430664" y="133" fill="#FFFFFF"> </tspan>
        <tspan x="134.859375" y="133" fill="#FFFFFF">__dirname </tspan>
        <tspan x="219.146484" y="133" fill="#FF6AC1">+</tspan>
        <tspan x="227.575195" y="133" fill="#FFFFFF"></tspan>
        <tspan x="0" y="153" fill="#FFFFFF"> 5</tspan>
        <tspan x="16.8574219" y="153" fill="#FFFFFF">          </tspan>
        <tspan x="101.144531" y="153" fill="#5AF78E">'/node_modules/@awv/classcad_cadapplication'</tspan>
        <tspan x="472.007812" y="153" fill="#AAAAAA">,</tspan>
        <tspan x="480.436523" y="153" fill="#FFFFFF"></tspan>
        <tspan x="0" y="173" fill="#FFFFFF"> 6</tspan>
        <tspan x="16.8574219" y="173" fill="#FFFFFF">      </tspan>
        <tspan x="67.4296875" y="173" fill="#EFF59B">config</tspan>
        <tspan x="118.001953" y="173" fill="#FF6AC1">:</tspan>
        <tspan x="126.430664" y="173" fill="#FFFFFF"> </tspan>
        <tspan x="134.859375" y="173" fill="#5AF78E">'CADApplication.ini'</tspan>
        <tspan x="303.433594" y="173" fill="#AAAAAA">,</tspan>
        <tspan x="311.862305" y="173" fill="#FFFFFF"></tspan>
        <tspan x="0" y="193" fill="#FFFFFF"> 7</tspan>
        <tspan x="16.8574219" y="193" fill="#FFFFFF">      </tspan>
        <tspan x="67.4296875" y="193" fill="#EFF59B">publicport</tspan>
        <tspan x="151.716797" y="193" fill="#FF6AC1">:</tspan>
        <tspan x="160.145508" y="193" fill="#FFFFFF"> </tspan>
        <tspan x="168.574219" y="193" fill="#57C7FF">process</tspan>
        <tspan x="227.575195" y="193" fill="#FFFFFF">.</tspan>
        <tspan x="236.003906" y="193" fill="#57C7FF">env</tspan>
        <tspan x="261.290039" y="193" fill="#FFFFFF">.</tspan>
        <tspan x="269.71875" y="193" fill="#57C7FF">port</tspan>
        <tspan x="303.433594" y="193" fill="#FFFFFF"> </tspan>
        <tspan x="311.862305" y="193" fill="#FF6AC1">||</tspan>
        <tspan x="328.719727" y="193" fill="#FFFFFF"> 8181</tspan>
        <tspan x="370.863281" y="193" fill="#AAAAAA">,</tspan>
        <tspan x="379.291992" y="193" fill="#FFFFFF"></tspan>
        <tspan x="0" y="213" fill="#FFFFFF"> 8</tspan>
        <tspan x="16.8574219" y="213" fill="#FFFFFF">      </tspan>
        <tspan x="67.4296875" y="213" fill="#EFF59B">privateport</tspan>
        <tspan x="160.145508" y="213" fill="#FF6AC1">:</tspan>
        <tspan x="168.574219" y="213" fill="#FFFFFF"> </tspan>
        <tspan x="177.00293" y="213" fill="#FFFFFF">9191</tspan>
        <tspan x="210.717773" y="213" fill="#AAAAAA">,</tspan>
        <tspan x="219.146484" y="213" fill="#FFFFFF"></tspan>
        <tspan x="0" y="233" fill="#FFFFFF"> 9</tspan>
        <tspan x="16.8574219" y="233" fill="#FFFFFF">      </tspan>
        <tspan x="67.4296875" y="233" fill="#EFF59B">instances</tspan>
        <tspan x="143.288086" y="233" fill="#FF6AC1">:</tspan>
        <tspan x="151.716797" y="233" fill="#FFFFFF"> </tspan>
        <tspan x="160.145508" y="233" fill="#FFFFFF">3</tspan>
        <tspan x="0" y="253" fill="#FFFFFF">10  </tspan>
        <tspan x="33.7148438" y="253" fill="#AAAAAA">})</tspan>
        <tspan x="50.5722656" y="253" fill="#FF6AC1">.</tspan>
        <tspan x="59.0009766" y="253" fill="#9AEDFE">start</tspan>
        <tspan x="101.144531" y="253" fill="#AAAAAA">()</tspan>
    </text>
</svg>
