<svg version="1.1" id="Layer_1" xmlns="http://www.w3.org/2000/svg" xmlns:xlink="http://www.w3.org/1999/xlink" x="0px" y="0px"
     viewBox="0 0 511.997 511.997" style="enable-background:new 0 0 511.997 511.997;" xml:space="preserve">
<circle style="fill:#FAC15C;" cx="393.068" cy="116.699" r="108.87"/>
<path style="fill:#F9B233;" d="M470.049,39.718c52.032,59.42,42.516,111.45,0,153.966c-42.517,42.516-111.45,42.516-153.967,0
    C316.081,193.686,470.24,157.263,470.049,39.718"/>
<path style="fill:#FFFFFF;" d="M376.568,12.224c146.882-8.941,126.473,126.473,126.473,126.473L376.568,12.224"/>
<rect x="244.363" y="109.869" transform="matrix(-0.7071 -0.7071 0.7071 -0.7071 548.6444 493.6522)" style="fill:#1D71B8;" width="264.395" height="46.658"/>
<rect x="254.624" y="85.12" transform="matrix(-0.7071 -0.7071 0.7071 -0.7071 523.9269 433.9162)" style="fill:#77AAD4;" width="194.413" height="46.658"/>
<g>

        <rect x="294.001" y="48.355" transform="matrix(-0.7071 -0.7071 0.7071 -0.7071 475.4203 309.3445)" style="fill:#1D1D1B;" width="15.553" height="15.709"/>

        <rect x="315.995" y="70.347" transform="matrix(-0.7071 -0.7071 0.7071 -0.7071 497.4155 362.4391)" style="fill:#1D1D1B;" width="15.553" height="15.709"/>

        <rect x="338.006" y="92.336" transform="matrix(-0.7071 -0.7071 0.7071 -0.7071 519.4429 415.5424)" style="fill:#1D1D1B;" width="15.554" height="15.71"/>

        <rect x="360.001" y="114.338" transform="matrix(-0.7071 -0.7071 0.7071 -0.7071 541.4312 468.6536)" style="fill:#1D1D1B;" width="15.553" height="15.709"/>

        <rect x="381.997" y="136.327" transform="matrix(-0.7071 -0.7071 0.7071 -0.7071 563.4329 521.7455)" style="fill:#1D1D1B;" width="15.553" height="15.71"/>

        <rect x="403.981" y="158.33" transform="matrix(-0.7071 -0.7071 0.7071 -0.7071 585.4037 574.8502)" style="fill:#1D1D1B;" width="15.553" height="15.709"/>

        <rect x="425.975" y="180.322" transform="matrix(-0.7071 -0.7071 0.7071 -0.7071 607.3989 627.9448)" style="fill:#1D1D1B;" width="15.553" height="15.709"/>

        <rect x="447.989" y="202.303" transform="matrix(-0.7071 -0.7071 0.7071 -0.7071 629.4363 681.0367)" style="fill:#1D1D1B;" width="15.553" height="15.71"/>
    <path style="fill:#1D1D1B;" d="M483.175,193.488c18.638-21.273,28.822-48.249,28.822-76.795c0-31.179-12.142-60.49-34.188-82.538
        C434.165-9.49,364.276-11.273,318.478,28.791l-16.687-16.687L285.295,28.6l-10.941-10.941l-11.109,11.108l10.942,10.942
        l-16.496,16.496l26.042,26.042c-11.027,35.71-4.435,74.369,18.053,104.364l12.57-9.424c-17.744-23.667-24.053-53.576-17.786-82.103
        l120.308,120.311c-28.527,6.265-58.438-0.044-82.102-17.786l-9.424,12.57c20.465,15.342,44.966,23.293,69.812,23.293
        c11.57,0,23.214-1.726,34.561-5.23l26.032,26.032l16.496-16.496l10.941,10.942l11.109-11.108l-10.942-10.942l16.496-16.496
        L483.175,193.488z M460.909,39.945l-10.706,10.706l11.109,11.108l10.728-10.728c15.688,18.284,24.246,41.314,24.246,65.66
        c0,0.636-0.012,1.268-0.023,1.902L393.435,15.766C417.455,15.334,441.583,23.395,460.909,39.945z M373.548,18.097l120.39,120.39
        c-3.533,16.148-10.991,31.154-21.897,43.865L329.633,39.945C342.603,28.839,357.731,21.555,373.548,18.097z M279.908,56.205
        l21.885-21.885l175.85,175.851l-21.885,21.885L279.908,56.205z"/>

        <rect x="172.937" y="90.06" transform="matrix(-0.7071 -0.7071 0.7071 -0.7071 74.4781 693.1329)" style="fill:#1D1D1B;" width="15.71" height="482.163"/>

        <rect x="126.222" y="9.972" transform="matrix(-0.6186 -0.7857 0.7857 -0.6186 79.9639 387.6825)" style="fill:#1D1D1B;" width="15.71" height="328.922"/>

        <rect x="329.663" y="213.435" transform="matrix(-0.7857 -0.6186 0.6186 -0.7857 368.9385 883.5998)" style="fill:#1D1D1B;" width="15.709" height="328.922"/>
</svg>
